<?xml version="1.0" encoding="utf-8"?>
<!-- Generator: Adobe Illustrator 15.1.0, SVG Export Plug-In . SVG Version: 6.00 Build 0)  -->
<!DOCTYPE svg PUBLIC "-//W3C//DTD SVG 1.1//EN" "http://www.w3.org/Graphics/SVG/1.1/DTD/svg11.dtd">
<svg version="1.1" id="Layer_1" xmlns="http://www.w3.org/2000/svg" xmlns:xlink="http://www.w3.org/1999/xlink" x="0px" y="0px"
	 width="500px" height="409.666px" viewBox="0 0 500 409.666" enable-background="new 0 0 500 409.666" xml:space="preserve">
<g>
	<path fill="#CCCCCC" d="M250.859,152.186c-45.606,0-82.709,37.104-82.709,82.709c0,45.607,37.104,82.709,82.709,82.709
		c45.607,0,82.708-37.102,82.708-82.709C333.567,189.29,296.467,152.186,250.859,152.186z"/>
	<path fill="#CCCCCC" d="M467.561,77.666H359.11c-13.311-78-77.674-73-77.674-73h-65.912c-53.001,5-67.524,61-70.708,73H34.156
		C19.381,77.666,5,89.417,5,104.43v269.085c0,15.013,14.381,28.15,29.156,28.15h433.404c14.775,0,26.439-13.138,26.439-28.15V104.43
		C494,89.417,482.336,77.666,467.561,77.666z M76.905,161.809c-9.548,0-17.288-7.741-17.288-17.289
		c0-9.546,7.74-17.287,17.288-17.287c9.547,0,17.288,7.741,17.288,17.287C94.192,154.068,86.452,161.809,76.905,161.809z
		 M250.859,342.067c-59.095,0-107.171-48.075-107.171-107.172c0-59.095,48.076-107.171,107.171-107.171
		c59.097,0,107.171,48.076,107.171,107.171C358.03,293.992,309.956,342.067,250.859,342.067z"/>
</g>
</svg>
