<?xml version="1.0" encoding="utf-8"?>
<!-- Generator: Adobe Illustrator 15.1.0, SVG Export Plug-In . SVG Version: 6.00 Build 0)  -->
<!DOCTYPE svg PUBLIC "-//W3C//DTD SVG 1.1//EN" "http://www.w3.org/Graphics/SVG/1.1/DTD/svg11.dtd">
<svg version="1.1" id="Layer_1" xmlns="http://www.w3.org/2000/svg" xmlns:xlink="http://www.w3.org/1999/xlink" x="0px" y="0px"
	 width="361px" height="500px" viewBox="0 0 361 500" enable-background="new 0 0 361 500" xml:space="preserve">
<g>
	<path fill="#9193AB" d="M98,74h162V36h-48.996C203.108,36,197,28.719,197,20.821V4h-35v16.821C162,28.719,155.353,36,147.456,36H98
		V74z"/>
	<path fill="#9193AB" d="M289,64v23.549c0,7.898-6.546,13.451-14.444,13.451H83.905C76.008,101,70,95.447,70,87.549V64H3v433h355V64
		H289z M190.352,389H60.073c-7.897,0-14.299-7.104-14.299-15s6.402-15,14.299-15h130.279c7.897,0,14.3,7.104,14.3,15
		S198.249,389,190.352,389z M304.743,320H56.896c-7.897,0-14.299-5.604-14.299-13.5S48.998,293,56.896,293h247.848
		c7.897,0,14.298,5.604,14.298,13.5S312.641,320,304.743,320z M304.743,258H56.896c-7.897,0-14.299-6.604-14.299-14.5
		c0-7.897,6.401-14.5,14.299-14.5h247.848c7.897,0,14.298,6.603,14.298,14.5C319.041,251.396,312.641,258,304.743,258z M304.743,194
		H56.896c-7.897,0-14.299-5.603-14.299-13.5c0-7.896,6.401-13.5,14.299-13.5h247.848c7.897,0,14.298,5.604,14.298,13.5
		C319.041,188.397,312.641,194,304.743,194z"/>
</g>
</svg>
