<?xml version="1.0" encoding="utf-8"?>
<!-- Generator: Adobe Illustrator 15.1.0, SVG Export Plug-In . SVG Version: 6.00 Build 0)  -->
<!DOCTYPE svg PUBLIC "-//W3C//DTD SVG 1.1//EN" "http://www.w3.org/Graphics/SVG/1.1/DTD/svg11.dtd">
<svg version="1.1" id="Layer_1" xmlns="http://www.w3.org/2000/svg" xmlns:xlink="http://www.w3.org/1999/xlink" x="0px" y="0px"
	 width="500px" height="455px" viewBox="0 0 500 455" enable-background="new 0 0 500 455" xml:space="preserve">
<path fill="#9193AB" d="M425.271,448h-121.26c-3.493,0-6.844-1.038-9.306-3.515c-2.469-2.476-3.842-5.657-3.825-9.15l0.6-116.179
	l-83.077-0.68l-1.2,116.861c-0.071,7.199-5.927,12.662-13.126,12.662H73.48c-7.243,0-13.118-5.511-13.129-12.757l-0.214-167.048
	l-43.882,0.34c-5.399-0.103-10.178-3.145-12.212-8.086c-2.037-4.947-0.872-10.613,2.952-14.357L247.185,10.746
	c2.498-2.449,5.915-3.842,9.374-3.744c3.499,0.05,6.835,1.499,9.266,4.018L494.021,247.71c3.661,3.8,4.693,9.445,2.619,14.302
	c-2.069,4.832-6.815,7.988-12.07,7.988c-0.022,0-0.039,0-0.062,0l-46.188-0.237l0.079,165.823c0,3.482-1.379,6.463-3.844,8.928
	C432.095,446.977,428.752,448,425.271,448z"/>
</svg>
